<svg width="78" height="21" viewBox="0 0 78 21" fill="none" xmlns="http://www.w3.org/2000/svg">
<path d="M9.744 20.28C7.168 20.28 5.17067 19.6173 3.752 18.292C2.352 16.9667 1.60533 15.1 1.512 12.692C1.49333 12.188 1.484 11.3667 1.484 10.228C1.484 9.07065 1.49333 8.23065 1.512 7.70799C1.60533 5.31865 2.36133 3.46132 3.78 2.13599C5.21733 0.791988 7.20533 0.119987 9.744 0.119987C11.4053 0.119987 12.852 0.409321 14.084 0.987988C15.316 1.54799 16.268 2.32265 16.94 3.31199C17.612 4.28265 17.9667 5.38399 18.004 6.61599V6.67199C18.004 6.82132 17.9387 6.95199 17.808 7.06399C17.696 7.15732 17.5653 7.20399 17.416 7.20399H14.756C14.532 7.20399 14.364 7.15732 14.252 7.06399C14.14 6.97065 14.0467 6.79332 13.972 6.53199C13.6733 5.35599 13.1787 4.53465 12.488 4.06799C11.7973 3.58265 10.8733 3.33999 9.716 3.33999C7.028 3.33999 5.628 4.84265 5.516 7.84799C5.49733 8.35199 5.488 9.12666 5.488 10.172C5.488 11.2173 5.49733 12.0107 5.516 12.552C5.628 15.5573 7.028 17.06 9.716 17.06C10.8733 17.06 11.7973 16.8173 12.488 16.332C13.1973 15.8467 13.692 15.0253 13.972 13.868C14.028 13.6067 14.112 13.4293 14.224 13.336C14.3547 13.2427 14.532 13.196 14.756 13.196H17.416C17.584 13.196 17.724 13.252 17.836 13.364C17.9667 13.476 18.0227 13.616 18.004 13.784C17.9667 15.016 17.612 16.1267 16.94 17.116C16.268 18.0867 15.316 18.8613 14.084 19.44C12.852 20 11.4053 20.28 9.744 20.28ZM27.2606 20.28C25.1886 20.28 23.5366 19.6827 22.3046 18.488C21.0913 17.2747 20.4473 15.576 20.3726 13.392L20.3446 12.692L20.3726 11.992C20.466 9.86399 21.1193 8.19332 22.3326 6.97999C23.5646 5.76665 25.2073 5.15999 27.2606 5.15999C29.4633 5.15999 31.162 5.83199 32.3566 7.17599C33.57 8.51999 34.1766 10.312 34.1766 12.552V13.14C34.1766 13.3267 34.1113 13.4853 33.9806 13.616C33.85 13.7467 33.682 13.812 33.4766 13.812H24.1806V14.036C24.218 15.0627 24.498 15.9307 25.0206 16.64C25.562 17.3307 26.2993 17.676 27.2326 17.676C28.334 17.676 29.2206 17.2467 29.8926 16.388C30.0606 16.1827 30.1913 16.052 30.2846 15.996C30.3966 15.94 30.5553 15.912 30.7606 15.912H33.1686C33.3366 15.912 33.4766 15.968 33.5886 16.08C33.7193 16.1733 33.7846 16.2947 33.7846 16.444C33.7846 16.892 33.514 17.424 32.9726 18.04C32.45 18.6373 31.694 19.16 30.7046 19.608C29.7153 20.056 28.5673 20.28 27.2606 20.28ZM30.3686 11.46V11.376C30.3686 10.2747 30.0886 9.38799 29.5286 8.71599C28.9873 8.04399 28.2313 7.70799 27.2606 7.70799C26.29 7.70799 25.534 8.04399 24.9926 8.71599C24.4513 9.38799 24.1806 10.2747 24.1806 11.376V11.46H30.3686ZM37.8208 20C37.6341 20 37.4754 19.9347 37.3448 19.804C37.2141 19.6733 37.1488 19.5147 37.1488 19.328V6.13999C37.1488 5.95332 37.2141 5.79466 37.3448 5.66399C37.4754 5.51465 37.6341 5.43999 37.8208 5.43999H40.0888C40.2941 5.43999 40.4621 5.50532 40.5928 5.63599C40.7234 5.76665 40.7888 5.93465 40.7888 6.13999V7.28799C41.2368 6.69065 41.7968 6.23332 42.4688 5.91599C43.1594 5.59865 43.9434 5.43999 44.8208 5.43999H45.9688C46.1741 5.43999 46.3328 5.50532 46.4448 5.63599C46.5754 5.74799 46.6408 5.90665 46.6408 6.11199V8.12799C46.6408 8.31465 46.5754 8.47332 46.4448 8.60399C46.3328 8.73466 46.1741 8.79999 45.9688 8.79999H43.7848C42.9074 8.79999 42.2168 9.05199 41.7128 9.55599C41.2088 10.06 40.9568 10.7507 40.9568 11.628V19.328C40.9568 19.5147 40.8914 19.6733 40.7608 19.804C40.6301 19.9347 40.4621 20 40.2568 20H37.8208ZM54.9052 20.28C52.8332 20.28 51.1812 19.6827 49.9492 18.488C48.7358 17.2747 48.0918 15.576 48.0172 13.392L47.9892 12.692L48.0172 11.992C48.1105 9.86399 48.7638 8.19332 49.9772 6.97999C51.2092 5.76665 52.8518 5.15999 54.9052 5.15999C57.1078 5.15999 58.8065 5.83199 60.0012 7.17599C61.2145 8.51999 61.8212 10.312 61.8212 12.552V13.14C61.8212 13.3267 61.7558 13.4853 61.6252 13.616C61.4945 13.7467 61.3265 13.812 61.1212 13.812H51.8252V14.036C51.8625 15.0627 52.1425 15.9307 52.6652 16.64C53.2065 17.3307 53.9438 17.676 54.8772 17.676C55.9785 17.676 56.8652 17.2467 57.5372 16.388C57.7052 16.1827 57.8358 16.052 57.9292 15.996C58.0412 15.94 58.1998 15.912 58.4052 15.912H60.8132C60.9812 15.912 61.1212 15.968 61.2332 16.08C61.3638 16.1733 61.4292 16.2947 61.4292 16.444C61.4292 16.892 61.1585 17.424 60.6172 18.04C60.0945 18.6373 59.3385 19.16 58.3492 19.608C57.3598 20.056 56.2118 20.28 54.9052 20.28ZM58.0132 11.46V11.376C58.0132 10.2747 57.7332 9.38799 57.1732 8.71599C56.6318 8.04399 55.8758 7.70799 54.9052 7.70799C53.9345 7.70799 53.1785 8.04399 52.6372 8.71599C52.0958 9.38799 51.8252 10.2747 51.8252 11.376V11.46H58.0132ZM70.3093 20.28C68.9093 20.28 67.7333 20.0747 66.7813 19.664C65.8293 19.2347 65.12 18.74 64.6533 18.18C64.2053 17.6013 63.9813 17.1067 63.9813 16.696C63.9813 16.5093 64.0466 16.36 64.1773 16.248C64.308 16.136 64.4573 16.08 64.6253 16.08H66.8373C67.0053 16.08 67.1453 16.1453 67.2573 16.276C67.332 16.332 67.528 16.5 67.8453 16.78C68.1626 17.0787 68.536 17.312 68.9653 17.48C69.3946 17.648 69.8706 17.732 70.3933 17.732C71.14 17.732 71.756 17.5827 72.2413 17.284C72.7266 16.9853 72.9693 16.5747 72.9693 16.052C72.9693 15.66 72.8573 15.3427 72.6333 15.1C72.428 14.8573 72.0453 14.6427 71.4853 14.456C70.9253 14.2507 70.0946 14.036 68.9933 13.812C67.4066 13.476 66.2306 12.9627 65.4653 12.272C64.7186 11.5813 64.3453 10.6667 64.3453 9.52799C64.3453 8.78132 64.5693 8.08132 65.0173 7.42799C65.4653 6.75599 66.128 6.21465 67.0053 5.80399C67.9013 5.37465 68.9653 5.15999 70.1973 5.15999C71.448 5.15999 72.5306 5.36532 73.4453 5.77599C74.36 6.16799 75.0506 6.64399 75.5173 7.20399C76.0026 7.74532 76.2453 8.23065 76.2453 8.65999C76.2453 8.82799 76.18 8.97732 76.0493 9.10799C75.9373 9.21999 75.7973 9.27599 75.6293 9.27599H73.5573C73.408 9.27599 73.2493 9.21065 73.0813 9.07999C72.9506 8.98665 72.7453 8.80932 72.4653 8.54799C72.1853 8.28665 71.8586 8.08132 71.4853 7.93199C71.112 7.78265 70.6733 7.70799 70.1693 7.70799C69.4786 7.70799 68.9373 7.85732 68.5453 8.15599C68.172 8.45466 67.9853 8.84666 67.9853 9.33199C67.9853 9.68665 68.0786 9.97599 68.2653 10.2C68.452 10.424 68.816 10.6387 69.3573 10.844C69.8986 11.0493 70.7106 11.2547 71.7933 11.46C73.5853 11.8147 74.864 12.3653 75.6293 13.112C76.4133 13.8587 76.8053 14.7733 76.8053 15.856C76.8053 17.1627 76.236 18.2267 75.0973 19.048C73.9586 19.8693 72.3626 20.28 70.3093 20.28Z" fill="white"/>
</svg>
