<svg width="76" height="21" viewBox="0 0 76 21" fill="none" xmlns="http://www.w3.org/2000/svg">
<path d="M8.744 20.28C6.168 20.28 4.17067 19.6173 2.752 18.292C1.352 16.9667 0.605333 15.1 0.512 12.692C0.493333 12.188 0.484 11.3667 0.484 10.228C0.484 9.07065 0.493333 8.23065 0.512 7.70799C0.605333 5.31865 1.36133 3.46132 2.78 2.13599C4.21733 0.791988 6.20533 0.119987 8.744 0.119987C10.4053 0.119987 11.852 0.409321 13.084 0.987988C14.316 1.54799 15.268 2.32265 15.94 3.31199C16.612 4.28265 16.9667 5.38399 17.004 6.61599V6.67199C17.004 6.82132 16.9387 6.95199 16.808 7.06399C16.696 7.15732 16.5653 7.20399 16.416 7.20399H13.756C13.532 7.20399 13.364 7.15732 13.252 7.06399C13.14 6.97065 13.0467 6.79332 12.972 6.53199C12.6733 5.35599 12.1787 4.53465 11.488 4.06799C10.7973 3.58265 9.87333 3.33999 8.716 3.33999C6.028 3.33999 4.628 4.84265 4.516 7.84799C4.49733 8.35199 4.488 9.12666 4.488 10.172C4.488 11.2173 4.49733 12.0107 4.516 12.552C4.628 15.5573 6.028 17.06 8.716 17.06C9.87333 17.06 10.7973 16.8173 11.488 16.332C12.1973 15.8467 12.692 15.0253 12.972 13.868C13.028 13.6067 13.112 13.4293 13.224 13.336C13.3547 13.2427 13.532 13.196 13.756 13.196H16.416C16.584 13.196 16.724 13.252 16.836 13.364C16.9667 13.476 17.0227 13.616 17.004 13.784C16.9667 15.016 16.612 16.1267 15.94 17.116C15.268 18.0867 14.316 18.8613 13.084 19.44C11.852 20 10.4053 20.28 8.744 20.28ZM26.2606 20.28C24.1886 20.28 22.5366 19.6827 21.3046 18.488C20.0913 17.2747 19.4473 15.576 19.3726 13.392L19.3446 12.692L19.3726 11.992C19.466 9.86399 20.1193 8.19332 21.3326 6.97999C22.5646 5.76665 24.2073 5.15999 26.2606 5.15999C28.4633 5.15999 30.162 5.83199 31.3566 7.17599C32.57 8.51999 33.1766 10.312 33.1766 12.552V13.14C33.1766 13.3267 33.1113 13.4853 32.9806 13.616C32.85 13.7467 32.682 13.812 32.4766 13.812H23.1806V14.036C23.218 15.0627 23.498 15.9307 24.0206 16.64C24.562 17.3307 25.2993 17.676 26.2326 17.676C27.334 17.676 28.2206 17.2467 28.8926 16.388C29.0606 16.1827 29.1913 16.052 29.2846 15.996C29.3966 15.94 29.5553 15.912 29.7606 15.912H32.1686C32.3366 15.912 32.4766 15.968 32.5886 16.08C32.7193 16.1733 32.7846 16.2947 32.7846 16.444C32.7846 16.892 32.514 17.424 31.9726 18.04C31.45 18.6373 30.694 19.16 29.7046 19.608C28.7153 20.056 27.5673 20.28 26.2606 20.28ZM29.3686 11.46V11.376C29.3686 10.2747 29.0886 9.38799 28.5286 8.71599C27.9873 8.04399 27.2313 7.70799 26.2606 7.70799C25.29 7.70799 24.534 8.04399 23.9926 8.71599C23.4513 9.38799 23.1806 10.2747 23.1806 11.376V11.46H29.3686ZM36.8208 20C36.6341 20 36.4754 19.9347 36.3448 19.804C36.2141 19.6733 36.1488 19.5147 36.1488 19.328V6.13999C36.1488 5.95332 36.2141 5.79466 36.3448 5.66399C36.4754 5.51465 36.6341 5.43999 36.8208 5.43999H39.0888C39.2941 5.43999 39.4621 5.50532 39.5928 5.63599C39.7234 5.76665 39.7888 5.93465 39.7888 6.13999V7.28799C40.2368 6.69065 40.7968 6.23332 41.4688 5.91599C42.1594 5.59865 42.9434 5.43999 43.8208 5.43999H44.9688C45.1741 5.43999 45.3328 5.50532 45.4448 5.63599C45.5754 5.74799 45.6408 5.90665 45.6408 6.11199V8.12799C45.6408 8.31465 45.5754 8.47332 45.4448 8.60399C45.3328 8.73466 45.1741 8.79999 44.9688 8.79999H42.7848C41.9074 8.79999 41.2168 9.05199 40.7128 9.55599C40.2088 10.06 39.9568 10.7507 39.9568 11.628V19.328C39.9568 19.5147 39.8914 19.6733 39.7608 19.804C39.6301 19.9347 39.4621 20 39.2568 20H36.8208ZM53.9052 20.28C51.8332 20.28 50.1812 19.6827 48.9492 18.488C47.7358 17.2747 47.0918 15.576 47.0172 13.392L46.9892 12.692L47.0172 11.992C47.1105 9.86399 47.7638 8.19332 48.9772 6.97999C50.2092 5.76665 51.8518 5.15999 53.9052 5.15999C56.1078 5.15999 57.8065 5.83199 59.0012 7.17599C60.2145 8.51999 60.8212 10.312 60.8212 12.552V13.14C60.8212 13.3267 60.7558 13.4853 60.6252 13.616C60.4945 13.7467 60.3265 13.812 60.1212 13.812H50.8252V14.036C50.8625 15.0627 51.1425 15.9307 51.6652 16.64C52.2065 17.3307 52.9438 17.676 53.8772 17.676C54.9785 17.676 55.8652 17.2467 56.5372 16.388C56.7052 16.1827 56.8358 16.052 56.9292 15.996C57.0412 15.94 57.1998 15.912 57.4052 15.912H59.8132C59.9812 15.912 60.1212 15.968 60.2332 16.08C60.3638 16.1733 60.4292 16.2947 60.4292 16.444C60.4292 16.892 60.1585 17.424 59.6172 18.04C59.0945 18.6373 58.3385 19.16 57.3492 19.608C56.3598 20.056 55.2118 20.28 53.9052 20.28ZM57.0132 11.46V11.376C57.0132 10.2747 56.7332 9.38799 56.1732 8.71599C55.6318 8.04399 54.8758 7.70799 53.9052 7.70799C52.9345 7.70799 52.1785 8.04399 51.6372 8.71599C51.0958 9.38799 50.8252 10.2747 50.8252 11.376V11.46H57.0132ZM69.3093 20.28C67.9093 20.28 66.7333 20.0747 65.7813 19.664C64.8293 19.2347 64.12 18.74 63.6533 18.18C63.2053 17.6013 62.9813 17.1067 62.9813 16.696C62.9813 16.5093 63.0466 16.36 63.1773 16.248C63.308 16.136 63.4573 16.08 63.6253 16.08H65.8373C66.0053 16.08 66.1453 16.1453 66.2573 16.276C66.332 16.332 66.528 16.5 66.8453 16.78C67.1626 17.0787 67.536 17.312 67.9653 17.48C68.3946 17.648 68.8706 17.732 69.3933 17.732C70.14 17.732 70.756 17.5827 71.2413 17.284C71.7266 16.9853 71.9693 16.5747 71.9693 16.052C71.9693 15.66 71.8573 15.3427 71.6333 15.1C71.428 14.8573 71.0453 14.6427 70.4853 14.456C69.9253 14.2507 69.0946 14.036 67.9933 13.812C66.4066 13.476 65.2306 12.9627 64.4653 12.272C63.7186 11.5813 63.3453 10.6667 63.3453 9.52799C63.3453 8.78132 63.5693 8.08132 64.0173 7.42799C64.4653 6.75599 65.128 6.21465 66.0053 5.80399C66.9013 5.37465 67.9653 5.15999 69.1973 5.15999C70.448 5.15999 71.5306 5.36532 72.4453 5.77599C73.36 6.16799 74.0506 6.64399 74.5173 7.20399C75.0026 7.74532 75.2453 8.23065 75.2453 8.65999C75.2453 8.82799 75.18 8.97732 75.0493 9.10799C74.9373 9.21999 74.7973 9.27599 74.6293 9.27599H72.5573C72.408 9.27599 72.2493 9.21065 72.0813 9.07999C71.9506 8.98665 71.7453 8.80932 71.4653 8.54799C71.1853 8.28665 70.8586 8.08132 70.4853 7.93199C70.112 7.78265 69.6733 7.70799 69.1693 7.70799C68.4786 7.70799 67.9373 7.85732 67.5453 8.15599C67.172 8.45466 66.9853 8.84666 66.9853 9.33199C66.9853 9.68665 67.0786 9.97599 67.2653 10.2C67.452 10.424 67.816 10.6387 68.3573 10.844C68.8986 11.0493 69.7106 11.2547 70.7933 11.46C72.5853 11.8147 73.864 12.3653 74.6293 13.112C75.4133 13.8587 75.8053 14.7733 75.8053 15.856C75.8053 17.1627 75.236 18.2267 74.0973 19.048C72.9586 19.8693 71.3626 20.28 69.3093 20.28Z" fill="#1C53E1"/>
</svg>
